<svg xmlns="http://www.w3.org/2000/svg" width="198" height="300" fill="none"><g fill="#1B1B20" clip-path="url(#clip0)"><path d="M59.55 250.15c-.65 0-1.3.52-1.3 1.31 0 .66.52 1.32 1.3 1.32.64 0 1.3-.53 1.3-1.32a1.3 1.3 0 00-1.3-1.31zM11.47 267.81c-.39 0-.65.18-.91.52-.26.35-.4.7-.4 1.22-.13 2.09-.39 4-.52 6.1 0 .86.52 1.73 1.3 1.73s1.3-.7 1.3-1.74c.14-2.08.27-4 .53-6.09v-.17c0-.87-.65-1.57-1.3-1.57z"/><path d="M14.8 271.36h-3.37c-.52 0-1.04 0-1.68-.14-.4 0-.9 0-1.3-.13H8.2c-.38-.14-.64-.14-1.03.13-.26.13-.52.39-.65.78-.13.4-.13.66.13 1.06.13.26.39.52.78.65.38.14.77.14 1.16.27h.9c.52 0 1.04.13 1.56.13h3.5c.64 0 1.28-.52 1.29-1.3.26-.8-.26-1.45-1.04-1.45zM86.28 84.26c-.9-.03-1.83.67-1.87 1.77-.04.91.65 1.86 1.73 1.9.9.03 1.84-.67 1.88-1.77a1.83 1.83 0 00-1.74-1.9zM73.56 179.9a5.14 5.14 0 00-1.07-1.92c-.27-.45-.83-.76-1.24-1.21-.28-.3-.7-.32-1.14-.2-.14 0-.3.14-.44.14l-.28-.01a1.3 1.3 0 00-1.02.4c-1.17.82-2.5 1.65-3.4 2.78a2.55 2.55 0 00-.5 2.01c.12.73.39 1.32.8 1.78.27.3.69.75.97.9l.84.47c.84.47 1.83.8 2.69.83.28.01.71.03 1-.1.44-.14.73-.27 1.02-.55.44-.28.9-.84 1.2-1.41.31-.72.63-1.43.66-2.3.01-.44.04-1.02-.09-1.6zm-2.8 2.08c0 .15-.15.29-.16.58 0 .14-.14.14-.15.28 0 .15-.15.14-.3.14h-.13l-.15-.01-.43-.02c-.28-.16-.56-.17-.84-.32-.28-.16-.56-.46-.98-.62l-.28-.3s0-.15-.13-.15l.14-.14c.75-.7 1.62-1.25 2.5-1.94l.56.6c.14.15.13.3.27.44.13.3.13.44.11.74l-.02.72zM17.18 66c.99 1.03 4 2.1 5.04 1.1 1.03-1 2.11-4.05 1.13-5.09-1-1.04-4-2.11-5.04-1.1-1.04 1-3.11 3-1.13 5.08zM3.35 6.58c.09.1.34.18.43.1.09-.09.18-.35.1-.44-.09-.08-.34-.18-.43-.09-.09.09-.27.26-.1.43zM117.42 185.43c-.55-.02-.93.34-.95.9-.02.56.33.95.88.97.55.02.94-.34.96-.9.02-.56-.34-.94-.89-.97zM50.04 28.28c.1.05.2.03.31-.03.12-.06.2-.14.26-.28.3-.55.62-1.04.92-1.6.11-.23.08-.53-.13-.63-.22-.1-.45.02-.58.3-.3.55-.58 1.06-.91 1.6l-.03.04c-.1.24-.02.51.16.6z"/><path d="M49.58 26.88l.92.44c.14.06.28.13.44.25.1.05.25.12.34.2l.07.04c.09.08.16.12.3.1a.4.4 0 00.27-.14c.09-.09.12-.16.1-.3a.4.4 0 00-.13-.28c-.09-.08-.2-.13-.28-.22l-.25-.12c-.14-.06-.26-.17-.4-.23l-.96-.46a.39.39 0 00-.51.2c-.18.18-.12.42.1.52zM133.15 124.75c.07 1.68 1.2 3.28 2.75 3.16 1.3-.1 2.55-1.54 2.46-3.55-.07-1.68-1.19-3.28-2.75-3.17-1.3.1-2.28 1.86-2.46 3.56zM183.37 227.36H180c-.51 0-1.03 0-1.68-.14-.39 0-.9 0-1.3-.13h-.25c-.39-.13-.65-.13-1.03.13-.26.13-.52.4-.65.79-.13.4-.13.65.13 1.05.12.26.38.52.77.66.39.13.78.13 1.16.26h.91c.52 0 1.04.13 1.55.13h3.5c.64 0 1.29-.52 1.3-1.3.25-.8-.27-1.45-1.04-1.45z"/><path d="M179.83 224c-.39 0-.65.18-.9.52-.27.35-.4.7-.4 1.22-.13 2.09-.4 4-.53 6.1 0 .86.52 1.73 1.3 1.73s1.3-.69 1.3-1.73c.14-2.1.27-4 .53-6.1v-.17c0-.87-.65-1.57-1.3-1.57z"/></g><defs><clipPath id="clip0"><path fill="#fff" d="M0 0h198v300H0z"/></clipPath></defs></svg>
