<svg xmlns="http://www.w3.org/2000/svg" width="198" height="300" fill="none"><g fill="#1B1B20" clip-path="url(#clip0)"><path d="M86.78 121.91a6 6 0 00-.04-2.57c-.03-.61-.44-1.24-.61-1.94-.12-.46-.55-.71-1.07-.82-.14-.09-.37-.03-.52-.11l-.28-.17c-.44-.26-.81-.28-1.27-.16-1.66.19-3.47.3-5.02.94-.78.33-1.35.97-1.63 1.79a3.88 3.88 0 00-.16 2.26c.11.46.29 1.15.5 1.47l.6.94c.6.95 1.44 1.84 2.3 2.35.3.17.73.43 1.1.45.52.11.9.14 1.35.02.6-.04 1.38-.36 2.01-.78a7.1 7.1 0 002.74-3.67zm-4.02.56c-.08.15-.31.21-.48.5-.09.15-.23.06-.32.2-.09.15-.23.07-.37-.02l-.15-.08-.14-.09-.43-.26c-.2-.31-.5-.48-.7-.8-.2-.31-.32-.78-.66-1.18l-.12-.46s.09-.14-.06-.23l.23-.06c1.15-.3 2.35-.37 3.65-.59l.23.93c.06.23-.03.37.03.6-.02.38-.11.52-.28.82l-.43.72zM116.17 175.65c-.36-.22-1.3-.28-1.52.09-.22.36-.29 1.31.08 1.53.36.21 1.3.27 1.52-.1.22-.36.65-1.1-.08-1.52zM121.17 270.65c-.36-.22-1.3-.28-1.52.08-.22.37-.29 1.32.08 1.54.36.21 1.3.28 1.52-.1.22-.36.28-1.3-.08-1.52zM150.5 249.38c-.37-.22-1.31-.28-1.53.09-.21.37-.28 1.32.08 1.53.37.22 1.3.28 1.52-.09.22-.37.65-1.1-.07-1.53zM4.5 79.98c-.24-.33-.62-.4-.95-.15-.33.23-.4.61-.16.94.24.33.62.4.95.16.33-.24.4-.62.16-.95zM83.97 206.07c-1.1-.64-2.25-.34-2.9.76-.64 1.1-.34 2.27.74 2.91 1.1.64 2.25.34 2.9-.76.64-1.1.35-2.26-.74-2.9zM49.26 298.08c-1.26-.05-2.13.77-2.18 2.05-.05 1.27.76 2.16 2.02 2.2 1.27.05 2.14-.77 2.19-2.05.04-1.27-.77-2.15-2.03-2.2zM115.17 29.23a1.89 1.89 0 101.71-2.05 1.9 1.9 0 00-1.7 2.05zM145.17 76.14c.05.57.46.9 1.03.86.56-.06.9-.47.85-1.03-.05-.56-.46-.9-1.03-.85-.56.05-.9.46-.85 1.02zM25.51 77.52l-.3-3.41a8.09 8.09 0 01-.02-1.72c-.03-.4-.08-.92.02-1.33l-.02-.26c.1-.4.07-.67-.23-1.04a1.35 1.35 0 00-.85-.58c-.4-.1-.67-.08-1.04.22-.25.15-.49.44-.59.85-.1.4-.06.8-.16 1.2l.09.92c.04.53-.04 1.06 0 1.59l.31 3.54c.06.66.65 1.27 1.44 1.2.8.2 1.42-.39 1.35-1.18z"/><path d="M28.76 73.85c-.04-.4-.24-.64-.6-.88a1.86 1.86 0 00-1.26-.29c-2.1.06-4.05-.04-6.16.02-.87.07-1.7.68-1.62 1.47.07.8.81 1.26 1.86 1.17 2.1-.05 4.03-.1 6.15-.01l.17-.02c.88-.08 1.51-.8 1.46-1.46z"/></g><defs><clipPath id="clip0"><path fill="#fff" d="M0 0h198v300H0z"/></clipPath></defs></svg>
