<?xml version="1.0" encoding="UTF-8" standalone="no"?>
<!-- Created with Inkscape (http://www.inkscape.org/) -->

<svg
   version="1.1"
   id="svg2214"
   xml:space="preserve"
   width="682.66669"
   height="682.66669"
   viewBox="0 0 682.66669 682.66669"
   xmlns="http://www.w3.org/2000/svg"
   xmlns:svg="http://www.w3.org/2000/svg"><defs
     id="defs2218"><clipPath
       clipPathUnits="userSpaceOnUse"
       id="clipPath2228"><path
         d="M 0,512 H 512 V 0 H 0 Z"
         id="path2226" /></clipPath><clipPath
       clipPathUnits="userSpaceOnUse"
       id="clipPath2244"><path
         d="M 0,512 H 512 V 0 H 0 Z"
         id="path2242" /></clipPath></defs><g
     id="g2220"
     transform="matrix(1.3333333,0,0,-1.3333333,0,682.66667)"><g
       id="g2222"><g
         id="g2224"
         clip-path="url(#clipPath2228)"><g
           id="g2230"
           transform="translate(45,106)"><path
             d="M 0,0 V 270 H 150"
             style="fill:none;stroke:#000000;stroke-width:30;stroke-linecap:round;stroke-linejoin:round;stroke-miterlimit:10;stroke-dasharray:none;stroke-opacity:1"
             id="path2232" /></g></g></g><g
       id="g2234"
       transform="translate(435,286)"><path
         d="M 0,0 V -180"
         style="fill:none;stroke:#000000;stroke-width:30;stroke-linecap:round;stroke-linejoin:round;stroke-miterlimit:10;stroke-dasharray:none;stroke-opacity:1"
         id="path2236" /></g><g
       id="g2238"><g
         id="g2240"
         clip-path="url(#clipPath2244)"><g
           id="g2246"
           transform="translate(465,106)"><path
             d="m 0,0 h -450 v -30 c 0,-16.568 13.432,-30 30,-30 h 390 c 16.568,0 30,13.432 30,30 z"
             style="fill:none;stroke:#000000;stroke-width:30;stroke-linecap:round;stroke-linejoin:round;stroke-miterlimit:10;stroke-dasharray:none;stroke-opacity:1"
             id="path2248" /></g><g
           id="g2250"
           transform="translate(467,466)"><path
             d="m 0,0 h -240 c -16.569,0 -30,-13.431 -30,-30 v -120 c 0,-16.569 13.431,-30 30,-30 h 30 v -60 l 60,60 H 0 c 16.569,0 30,13.431 30,30 V -30 C 30,-13.431 16.569,0 0,0 Z"
             style="fill:none;stroke:#000000;stroke-width:30;stroke-linecap:round;stroke-linejoin:round;stroke-miterlimit:10;stroke-dasharray:none;stroke-opacity:1"
             id="path2252" /></g><g
           id="g2254"
           transform="translate(302,376)"><path
             d="m 0,0 c 0,-8.284 -6.716,-15 -15,-15 -8.284,0 -15,6.716 -15,15 0,8.284 6.716,15 15,15 C -6.716,15 0,8.284 0,0"
             style="fill:#000000;fill-opacity:1;fill-rule:nonzero;stroke:none"
             id="path2256" /></g><g
           id="g2258"
           transform="translate(362,376)"><path
             d="m 0,0 c 0,-8.284 -6.716,-15 -15,-15 -8.284,0 -15,6.716 -15,15 0,8.284 6.716,15 15,15 C -6.716,15 0,8.284 0,0"
             style="fill:#000000;fill-opacity:1;fill-rule:nonzero;stroke:none"
             id="path2260" /></g><g
           id="g2262"
           transform="translate(422,376)"><path
             d="m 0,0 c 0,-8.284 -6.716,-15 -15,-15 -8.284,0 -15,6.716 -15,15 0,8.284 6.716,15 15,15 C -6.716,15 0,8.284 0,0"
             style="fill:#000000;fill-opacity:1;fill-rule:nonzero;stroke:none"
             id="path2264" /></g></g></g></g></svg>
